<svg xmlns="http://www.w3.org/2000/svg" viewBox="0 0 700 688" width="700" height="688">
	<style>
		tspan { white-space:pre }
		.shp0 { fill: #000000 } 
		.shp1 { fill: #741f0a } 
		.shp2 { fill: #391209 } 
		.shp3 { fill: #e216df } 
		.shp4 { fill: #d80a0a } 
		.shp5 { fill: #21df69 } 
		.shp6 { fill: #900cd3 } 
		.shp7 { fill: #550c54 } 
		.shp8 { fill: #de1cdb } 
		.shp9 { fill: #f31c1c } 
		.shp10 { fill: #db1616 } 
		.shp11 { fill: #f12d2d } 
	</style>
	<g id="Layer">
		<path id="Layer" class="shp0" d="M307.9 7.6C307.2 8.5 306.5 9.9 306.4 10.7C305.8 14.2 304.3 14.8 298.4 13.3L292.8 11.8L289.6 14.9C287.2 17.2 285.5 18 282.8 18C276.4 18 272.9 19.1 272 21.5C270.7 24.8 265 29.9 261.3 30.9C259.5 31.4 256.7 32.8 255.1 33.9C253.5 35.1 250.7 36.3 249 36.7C246.9 37.1 243.7 39.4 239.7 43.5C231.9 51.3 222.3 63 221.1 66.2C220.6 67.5 219 70.4 217.6 72.5C216.2 74.6 215 77.2 214.9 78.4C214.9 79.6 212.9 84.1 210.5 88.5C208.1 92.9 205.1 98.5 204 101C202.8 103.5 200.6 108.2 199 111.5C192.7 125 192.2 126.6 191.1 138C189.7 151.6 189.7 155.4 190.8 176.5C192.2 202.2 190 236 186.3 247.1C185 250.8 184.9 252.4 185.9 255C188.3 262.1 187 269.3 183 271C177.9 273.1 172 282 172 287.6C172 291.1 174.1 290.2 176.2 285.9C177.5 283.2 178.4 282.5 180.7 282.5C183 282.5 183.5 282.1 183.5 280.2C183.5 277.7 185.6 275.9 187.7 276.7C188.4 277 191.9 280.1 195.4 283.6C198.9 287.1 202.5 290 203.4 290C204.3 290 205.2 291.1 205.6 292.5C206.8 297.5 207.7 294.8 208.3 284.2C209.2 268 210.9 252.5 211.9 249.7C212.5 248.3 213.6 242.3 214.5 236.3C215.4 230.4 216.9 223.9 218 221.9C219.5 218.8 219.8 216.9 219.3 210.6C218.8 203.9 219.1 201.9 221.6 194.2C225.6 182.1 235.4 167.5 244.9 159.6C250.8 154.6 252.1 154 259.3 152.9C262.8 152.3 267.1 150.8 269.2 149.5C271.6 147.9 274.4 147 276.8 147C278.9 147 282.6 146 285.1 144.9C290.2 142.4 299.5 141.1 312.8 141C320.3 141 322.9 140.6 326.3 138.8C329.4 137.2 332.9 136.6 340 136.3C348.6 135.9 350 135.5 355.1 132.4C363.1 127.6 372.4 125.6 380.9 126.9C388.6 128.1 397.9 131.1 402.4 133.9C404.1 135 407.8 136.4 410.5 137C416.5 138.3 418.7 140.2 421.1 145.7C422.1 148 423.9 150.4 425.2 151.1C430.8 154.1 437.3 160.7 439.6 165.7C441.8 170.5 442.3 171 445.3 171C447.1 171 449 170.6 449.5 170.1C450.1 169.6 451.9 168.9 453.6 168.5C456.3 168 457.4 168.4 460.5 171.1C462.5 172.9 464.8 175.7 465.7 177.4C466.6 179.1 467.9 180.9 468.6 181.3C471.3 182.9 479.8 202 482.6 212.7C483.4 215.9 485.2 220.3 486.4 222.5C489.3 227.4 493.8 239.6 495.5 247C496.2 250 497 258.1 497.5 265C497.9 272.5 498.9 279.7 500 283C502.9 291.7 503.3 296.8 503.1 326.1C503 349.5 503.2 354 504.5 355C506.7 356.8 508.9 355.5 510.6 351.4C511.9 348.2 511.9 347.3 510.7 344.1C509.7 341.6 509.4 338.2 509.8 332.6C510.3 325 510.2 324.8 508.1 325.5C506.3 326 506 325.7 506 323.7C506 322.3 506.5 321 507 320.8C507.6 320.6 508.3 319.1 508.6 317.5C508.9 315.8 510 313.6 511 312.5C512.6 310.8 512.8 309.3 512.3 302C511.8 294 512 293.3 514.4 289.7C515.8 287.6 517 285.6 517 285.3C517 283.5 525.4 267.8 526.6 267.3C527.4 267 528.7 267.3 529.5 268C530.3 268.6 531.3 268.9 531.8 268.6C532.3 268.3 533 269.4 533.4 271.2C534.2 275.1 535.7 277 538.2 277C540.9 277 541.4 274.7 539.8 269.8C538.8 267 537.7 265.4 536.4 265.2C531.3 264.4 529 262.7 528.4 259.4C528.1 257.5 528 254.5 528.3 252.7C528.8 249.4 527.8 234.3 525.9 216.5C525.1 208.2 525.1 205.5 526.4 200.5C527.4 197 528 190.2 528 183.5C528.1 177.5 528.5 166.6 528.9 159.5C529.9 144.5 528.5 132.5 525.3 128.1C524.2 126.7 522.3 123.5 521.1 121.2C517.7 114.6 508.8 106.3 503.8 105C494.6 102.8 494.6 102.7 494 91C493.6 83.2 493.8 80.3 494.8 79.7C496.5 78.6 496.3 76 494.5 76C493.7 76 493 76.8 493 77.7C493 79.2 492.8 79.3 492 78C491.5 77.2 491 74.8 491 72.8C491 70.1 490.4 68.8 488.9 68C487.8 67.4 486 64.9 485 62.6C484 60.3 482 57.1 480.6 55.5C479.2 54 478 52.4 478 52C478 51.7 475 49.4 471.3 47C467.5 44.6 461.6 40 458 36.9C454.4 33.8 449.8 30.8 447.8 30.1C445.8 29.4 443.6 28.2 442.9 27.4C442.2 26.5 440.3 25.2 438.6 24.3C436.9 23.4 434.7 21.9 433.7 20.9C432.7 19.8 430.9 19 429.7 19C408.7 18.8 404.5 18.2 396.5 14.9C388.9 11.8 387.9 11.6 375 11.5C364.2 11.4 360.7 11 357.8 9.6C352.2 6.9 336.7 6.8 332 9.4C329.7 10.7 326.5 11.4 322.9 11.4C318.3 11.5 316.7 11 313.7 8.7C309.5 5.5 309.6 5.5 307.9 7.6Z" />
		<path id="Layer" class="shp0" d="M413.2 240.1C408.1 240.8 396.7 244.4 394.4 246.2C393.7 246.7 392 248.8 390.5 250.9C387.4 255.5 388 257.6 393.4 260.9C397.5 263.5 402.2 263.5 407.7 261C410.1 260 414.8 258.6 418.2 258C421.7 257.4 426.8 256.2 429.5 255.5C444.1 251.4 455.9 251.6 462 256.2C465.5 258.7 470.9 259.1 472.3 256.8C473.2 255.5 472.5 254.3 468.6 250.6C466 248.1 463.6 246 463.2 246C462.7 246 460.4 244.6 458.1 242.8L453.7 239.6L436.1 239.6C426.4 239.5 416.1 239.8 413.2 240.1Z" />
		<path id="Layer" class="shp0" d="M257.5 241C255.9 241.4 252 241.8 248.9 241.9C244.2 242 242.6 242.5 239.1 245.3C233.5 249.7 231.8 252.4 232.2 256.3C232.4 258.9 233 259.6 235.2 259.8C236.7 260 239.1 259.5 240.7 258.7C244.9 256.5 254.2 255.6 258.3 256.9C260.3 257.6 264.7 258.1 268.2 258.1C271.7 258.1 279.6 259.2 285.8 260.6C292.1 261.9 299.2 263 301.6 263C305.5 263 306.2 262.7 307.2 260.2C309 255.8 308.7 250.3 306.5 248C305.3 246.9 299.8 244.9 292.7 243C283 240.5 279 240 270.7 240.1C265.1 240.2 259.2 240.6 257.5 241Z" />
		<path id="Layer" class="shp0" d="M389.9 268C387.8 269.7 387.7 269.9 389.3 270C391.9 270 395.2 268.1 394.5 266.9C393.6 265.5 392.5 265.8 389.9 268Z" />
		<path id="Layer" fill-rule="evenodd" class="shp0" d="M292 271.4C297.1 273 297.3 273.9 294.5 283.6C293.2 288.2 292.4 289.3 289 291C283.7 293.7 281.3 293.5 276 289.9C272.3 287.4 271.3 286.1 270.4 282.2C269.8 279.6 269 276.5 268.6 275.4C268.2 273.9 268.5 272.7 269.5 271.6C271.6 269.5 285.5 269.4 292 271.4ZM283.1 278C279.8 278 278 279.7 280.4 280.6C282.5 281.4 285.3 280.7 285.8 279.2C286 278.4 285.1 278 283.1 278Z" />
		<path id="Layer" class="shp0" d="M383.5 273.1C383.1 273.7 383 274.4 383.3 274.7C384 275.4 386 274.1 386 272.9C386 271.7 384.3 271.7 383.5 273.1Z" />
		<path id="Layer" class="shp0" d="M421 274.1C419.7 274.7 417.7 275.8 416.7 276.7C415.4 278 414.7 278.1 413.8 277.2C412.1 275.5 405.5 275.7 404 277.5C402.9 278.8 403 279.7 404.3 282.4C405.2 284.3 406.2 287.5 406.6 289.5C407.4 293.8 409.7 295 416.9 295C420.9 295 422 294.5 424.6 291.7C426.3 290 428.4 287.3 429.3 285.7C431.5 282.3 436.5 281.9 437.5 285C438.3 287.6 443.4 290.2 446.8 289.8C449.1 289.6 449.5 289 449.5 286.5C449.5 284 448.9 283.3 445.5 282C443.3 281.2 440.4 279.7 439 278.7C437.7 277.8 435.9 277 435 277C434.2 277 432 276.1 430.2 275C426.6 272.8 424.8 272.6 421 274.1Z" />
		<path id="Layer" class="shp0" d="M257.9 280.7C257.3 282.2 256 284.5 254.9 285.6C253.6 287 253.2 288 253.9 288.4C254.4 288.8 255.7 287.9 256.6 286.5C257.5 285.1 259.4 283.4 260.9 282.7C264.1 281.2 264.3 278.6 261.3 278.2C259.6 277.9 258.7 278.6 257.9 280.7Z" />
		<path id="Layer" class="shp0" d="M397 279.5C397 280.3 397.5 281 398 281C398.6 281 399 280.3 399 279.5C399 278.7 398.6 278 398 278C397.5 278 397 278.7 397 279.5Z" />
		<path id="Layer" class="shp0" d="M542 284.8C542 287.9 542.4 289 543.3 288.8C545.1 288.1 545.3 284.8 543.6 282.5C542.2 280.6 542.1 280.8 542 284.8Z" />
		<path id="Layer" class="shp0" d="M247.5 286C247.2 286.5 247.4 287 247.9 287C248.5 287 249 286.5 249 286C249 285.4 248.8 285 248.6 285C248.3 285 247.8 285.4 247.5 286Z" />
		<path id="Layer" class="shp1" d="M542.7 299.2C543.6 304.2 543.5 323.9 542.5 327.7C542.1 329.5 542.3 330.1 543.2 329.8C545.1 329.1 546.2 319.7 545.6 309C545 298.8 544.3 295 542.9 295C542.4 295 542.3 296.8 542.7 299.2Z" />
		<path id="Layer" class="shp2" d="M196.6 304.1C195.6 314.2 195.9 322.8 197.4 326.5C200.4 333.6 202 330.5 202.7 316.3C203.2 307 203.1 305.9 201.1 303.4C200 302 199 300.1 199 299.4C199 298.6 198.6 298 198.1 298C197.7 298 197 300.8 196.6 304.1Z" />
		<path id="Layer" class="shp0" d="M169.5 315.7C170.2 318.7 170.8 319.6 171.4 318.9C172.2 318.1 170.8 313 169.8 313C169.2 313 169.1 314.1 169.5 315.7Z" />
		<path id="Layer" class="shp0" d="M172.4 331.7C173.1 337.3 173.5 338.8 174.5 337.9C175.3 337 173.7 326 172.7 326C172.1 326 172 328.1 172.4 331.7Z" />
		<path id="Layer" class="shp0" d="M537.5 341.2C537.1 343 536.6 345.3 536.4 346.2C536.1 347.2 536.3 348 536.8 348C537.6 348 540 341.5 540 339.1C540 336.6 538.1 338.2 537.5 341.2Z" />
		<path id="Layer" class="shp0" d="M179 351C179 351.5 179.5 352 180 352C180.6 352 181 351.5 181 351C181 350.4 180.6 350 180 350C179.5 350 179 350.4 179 351Z" />
		<path id="Layer" class="shp0" d="M206.2 357C205.5 358.1 204.3 359 203.5 359C201.7 359 201.7 359.1 203 362.4C204.1 365.4 205.7 365.7 207.6 363.2C209 361.4 209.5 355 208.2 355C207.8 355 206.9 355.9 206.2 357Z" />
		<path id="Layer" class="shp0" d="M321 366.2C316.7 370.9 316.1 372.5 318.6 373.4C321.7 374.6 324.2 374 324.7 372C325 370.9 326.4 369.7 327.9 369.4C332.5 368.4 333 368.1 333 366.2C333 363.6 331 362 327.8 362C325.7 362 323.8 363.2 321 366.2Z" />
		<path id="Layer" class="shp0" d="M361 363.5C360 364.8 360 365.4 361.5 367C363.8 369.5 366.1 369.5 369.1 367.1C371.1 365.5 371.2 365 370.1 363.6C368.4 361.6 362.6 361.5 361 363.5Z" />
		<path id="Layer" class="shp0" d="M531.8 372.2C531.5 374.6 531 377.3 530.6 378.2C530.1 379.3 530.2 380 530.9 380C532.4 380 534 375.7 534 371.4C534 366.5 532.3 367.2 531.8 372.2Z" />
		<path id="Layer" class="shp0" d="M185 380.9C185 381.5 185.5 382.2 186 382.5C186.6 382.8 187 382.4 187 381.6C187 380.7 186.6 380 186 380C185.5 380 185 380.4 185 380.9Z" />
		<path id="Layer" class="shp0" d="M326.2 382.2C326.7 383.7 333 384.6 333 383.2C333 382 330.6 381 327.8 381C326.7 381 326 381.5 326.2 382.2Z" />
		<path id="Layer" class="shp0" d="M526 384.5C525.3 385.4 525 386.3 525.3 386.6C525.6 386.9 526.3 386.2 527 385.1C528.3 382.6 527.8 382.4 526 384.5Z" />
		<path id="Layer" class="shp0" d="M334.6 387.6C332.5 389.6 332.6 391.9 334.7 394.2C336.2 395.9 336.1 396 332.9 396C328.5 396 325 397 325 398.2C325 398.7 327.7 398.9 331.8 398.5C335.5 398.1 340.5 398.3 343 398.8C348.6 400.1 362.9 398.8 364.1 396.9C364.7 395.8 365.3 395.9 366.9 397.4C368.3 398.6 371.1 399.4 375.7 399.7C382.9 400.3 385.8 401.5 397.8 409.3C401.2 411.5 404 414 404 414.7C404 416.9 398.9 418.2 393.3 417.6C388 417 386.9 417.5 386.3 421.2C386.1 422.3 386.8 423.1 388.3 423.4C398.6 425.5 402.9 425.7 410.7 424.5C415.4 423.7 423.4 426.2 424.9 428.8C426.1 431 429 429.5 429 426.7C429 425.3 428.4 423.7 427.6 423.1C426.8 422.5 425.9 419.8 425.5 417.2C424.1 407.6 418.6 400.8 411.2 399.6C408.9 399.3 403.4 397.4 398.9 395.4C392.6 392.6 390 392 387.4 392.5C384.8 392.9 383.3 392.6 381 390.9C378 388.7 378 388.7 372.5 390.4C367.2 392 367 392 364.3 390.1C362.7 388.9 359.4 387.7 356.8 387.4C352.3 386.8 352 386.9 351 389.6C349.9 392.3 348.4 394 346.8 394C346.4 394 345.1 392.2 344 390C342.3 386.7 341.4 386 339.1 386C337.5 386 335.4 386.7 334.6 387.6Z" />
		<path id="Layer" class="shp0" d="M191 389.4C191 390.3 191.7 391.3 192.5 391.7C195 392.6 195.2 391.5 193 389.5C191.2 387.8 191 387.8 191 389.4Z" />
		<path id="Layer" class="shp0" d="M503.7 389.7C502.4 391 505.3 393 508.6 393C512.7 393 512.9 391.9 509.3 390.2C506.3 388.9 504.7 388.7 503.7 389.7Z" />
		<path id="Layer" class="shp0" d="M517.3 390.3C515.5 390.8 514 391.7 514 392.1C514 393.5 518.4 393.1 520.5 391.7C523 389.8 521.2 389.1 517.3 390.3Z" />
		<path id="Layer" class="shp0" d="M308.1 393.2C300.2 394.3 287.5 399.1 282.7 402.8C277.6 406.7 276 410 276 416.3C276 423.5 277.6 424.9 282.8 422.6C286.6 420.9 286.8 420.9 292.2 423.4C296.8 425.5 298.3 425.8 301.1 425C302.9 424.4 308 423.7 312.2 423.4C321.6 422.6 322.5 421 313.6 421C309.2 421 306.9 420.5 306 419.5C305.3 418.6 303.1 418 300.5 418C294.6 418 293.2 416.1 295.8 411.8C298.2 407.9 302.1 405.5 308.9 403.5C317.6 400.9 321.8 395.5 317.1 393C316 392.5 315 392.1 314.8 392.1C314.6 392.2 311.6 392.7 308.1 393.2Z" />
		<path id="Layer" class="shp0" d="M201.5 397C201.8 397.5 203.4 398 205.1 398C206.7 398 208 397.5 208 397C208 396.4 206.4 396 204.4 396C202.3 396 201.1 396.4 201.5 397Z" />
		<path id="Layer" class="shp0" d="M216 404.5C216 405.3 216.5 406 217 406C217.6 406 218 405.3 218 404.5C218 403.7 217.6 403 217 403C216.5 403 216 403.7 216 404.5Z" />
		<path id="Layer" class="shp0" d="M488 405.5C488 406.3 488.5 407 489 407C489.6 407 490 406.3 490 405.5C490 404.7 489.6 404 489 404C488.5 404 488 404.7 488 405.5Z" />
		<path id="Layer" class="shp0" d="M487 410C487 410.5 487.5 411 488 411C488.6 411 489 410.5 489 410C489 409.4 488.6 409 488 409C487.5 409 487 409.4 487 410Z" />
		<path id="Layer" class="shp0" d="M375 421.7C370.2 422.3 368.7 424 373.1 424C377.4 424 381 423 381 421.9C381 421.4 380.4 421.1 379.8 421.2C379.1 421.2 376.9 421.5 375 421.7Z" />
		<path id="Layer" class="shp0" d="M481.5 424.7C481.1 426.8 480 429.7 478.9 431.2C476.6 434.4 473.7 442.1 474.6 442.9C475.6 443.9 477.8 440 478.5 435.9C478.9 433.7 479.7 431.4 480.4 430.7C482.4 428.7 484 425.3 484 423.1C484 419.6 482.3 420.8 481.5 424.7Z" />
		<path id="Layer" class="shp0" d="M322 423C322 423.5 322.9 424 324 424C325.1 424 326 423.5 326 423C326 422.4 325.1 422 324 422C322.9 422 322 422.4 322 423Z" />
		<path id="Layer" class="shp0" d="M234 446.9C234 447.5 234.5 448.2 235 448.5C235.6 448.8 236 448.4 236 447.6C236 446.7 235.6 446 235 446C234.5 446 234 446.4 234 446.9Z" />
		<path id="Layer" class="shp0" d="M357.3 450.7C355.1 451.5 355.9 453 358.6 453C360.1 453 361 452.5 360.8 451.8C360.3 450.4 359 450 357.3 450.7Z" />
		<path id="Layer" class="shp0" d="M340 452C340 452.5 340.7 453 341.5 453C342.3 453 343 452.5 343 452C343 451.4 342.3 451 341.5 451C340.7 451 340 451.4 340 452Z" />
		<path id="Layer" class="shp0" d="M339.1 455.7C338.2 456.4 336.8 457 336 457C335.2 457 333.8 457.5 333 458C330 460 334.4 461 346.6 461C359.3 461 365 460.3 365 458.9C365 458.4 363.4 458 361.4 458C359.3 458 358.1 457.6 358.5 457C359.4 455.6 357.6 455.2 348.6 454.8C343.4 454.6 340.2 454.9 339.1 455.7Z" />
		<path id="Layer" class="shp0" d="M241 458.9C241 460.1 241.5 461 242 461C242.6 461 243 460.4 243 459.6C243 458.8 242.6 457.8 242 457.5C241.5 457.2 241 457.8 241 458.9Z" />
		<path id="Layer" class="shp0" d="M469.6 465.2C468 480 467.8 485 468.9 485C470.3 485 470.8 482.5 471.5 470.2C471.9 463.9 471.8 460 471.2 460C470.7 460 470 462.4 469.6 465.2Z" />
		<path id="Layer" class="shp0" d="M246 487.5C246 490 246.5 492 247 492C247.6 492 248 490 248 487.5C248 485 247.6 483 247 483C246.5 483 246 485 246 487.5Z" />
		<path id="Layer" fill-rule="evenodd" class="shp3" d="M480.5 494.4C482.5 495.8 486.2 497.2 488.8 497.5C495.8 498.5 496.9 498.9 500.9 502.5C502.9 504.2 505.1 505.9 505.9 506.1C506.6 506.4 507.9 508.8 508.9 511.5C509.8 514.3 511.1 516.5 511.9 516.5C513.6 516.5 515.7 519.6 514.7 520.6C514.3 521 513.5 520.9 512.8 520.2C512 519.4 511.2 519.7 509.9 521.5C507.4 524.6 507.5 525.8 511 530.4C512.7 532.6 514 534.9 514 535.5C514 536.1 515.6 539 517.5 542C520.8 547.1 521 548 521 555.5C521 561.9 520.6 564 519 566C516.3 569.4 516.5 572.2 519.5 575C525 580.1 519.4 586.2 512.4 582.9C508.9 581.2 508.3 578.3 510.4 574.1C512.6 570 512.4 564.2 510 560.2C507.7 556.4 505.8 556.1 504.3 559.2C502.1 563.8 502.1 565.2 504.2 571.5C506.2 577.7 506.2 578.2 504.6 582.3C502.7 587.4 502.5 591.6 504.3 592.7C504.9 593.1 508.5 593.5 512.1 593.5L518.7 593.5L525 599.8C528.5 603.2 531.7 605.7 532.2 605.2C533.3 604.1 533.5 599.2 532.6 595.9C531.9 593.6 532.2 593.2 534.4 592.6C537.6 591.8 540.4 586.7 539.6 583C539.2 581 539.7 579.8 541.4 578.3C543.5 576.4 543.7 576.4 547.8 578.1C550.1 579.1 552 580.4 552 580.9C552 582.2 561.9 588.7 566.1 590.1C568 590.8 570.6 592.3 572 593.6C573.4 594.9 576 596.3 577.8 596.6C579.6 597 581.7 598.1 582.4 599.2C584.8 602.6 593.2 607.1 600.9 609.1C605 610.1 609.4 611.7 610.7 612.5C611.9 613.4 615.1 614.3 617.7 614.6C620.9 615.1 623.5 616.2 625.5 618C627.2 619.6 630.2 621 632.5 621.3C634.7 621.7 637.1 622.8 638 623.9C638.8 625 641.7 626.4 644.5 627C647.2 627.6 650.4 628.9 651.5 629.9C653.8 632 659.2 634 662.5 634C663.7 634 665.6 635.3 666.8 637C668.5 639.2 669.9 640 672.2 640C674.3 640 676.5 641.1 679.1 643.5C681.3 645.4 684 647 685.1 647C686.3 647 688.8 648.3 690.7 650C692.8 651.9 695.2 653 697 653L700 653L700 688L694.5 688C690.8 688 688 687.4 685.8 686C681.9 683.6 678.3 683.5 674.5 685.4C672 686.7 671.2 686.6 666.1 684.7C656.5 681.2 656.8 682 657.4 663.3C657.8 647.5 657.9 646.9 660.4 643.9C664 639.7 663.7 638.3 658.9 637C656.6 636.3 653.5 635 652.1 633.9C650.7 632.9 648 631.6 646.3 631.1C643.5 630.3 642.8 630.4 641.5 632.3C639.8 634.7 639.6 637.8 640.9 639.8C641.6 641 642.2 640.9 644.7 639.7C646.3 638.8 648.2 638.5 648.9 638.9C650.4 639.9 650.6 652.4 649 656.4C648.5 657.9 648 662 648 665.6C648 672.6 645.5 679.2 642.4 680.4C641.5 680.8 639.3 680.8 637.6 680.5C635.8 680.1 633 680.5 630.8 681.4C625.9 683.5 624.4 683.4 622 681C620 679 620 678.1 620.6 663.2C621 651 621.7 645.5 623.7 638.4C626.8 627.1 626.2 621.1 621.7 619.6C614.4 617 609.1 628.2 608.5 647.5C607.9 663.3 607 672.2 605.8 673.7C604.3 675.6 598.2 676.4 595.4 675.1C591.8 673.5 592.5 675.1 597.5 680C605.4 687.8 605 688 582.2 688L562.3 688L560 685.5C556.9 682.2 552.7 682.2 549.8 685.5L547.6 688L404 688L404 685.2C404 683.7 404.6 681.6 405.3 680.4C405.9 679.2 407.7 676 409.3 673.2C410.9 670.1 413.2 667.4 415.1 666.4C416.8 665.6 420.4 662.7 423 660.2C425.6 657.6 429 654.6 430.5 653.5C432.3 652.1 433.6 649.8 434.4 646.5C435.6 642 436.2 641.3 442.1 637.7C445.6 635.6 450.3 632.9 452.5 631.8C454.7 630.6 458.1 628.4 460.1 626.9C462.1 625.3 464.6 624 465.6 624C466.7 624 469.5 622.6 471.9 621C474.6 619.1 477.6 618 479.7 618C483.9 618 483.9 616.1 479.7 613.5C473 609.3 471.4 601.1 475 588.2C477.7 578.4 477.6 571.5 474.6 564.9C471.7 558.7 470.2 550.8 469.1 536.4C467.9 521.9 470.5 497.3 473.6 493.9C475.8 491.5 476.2 491.5 480.5 494.4ZM568.7 654L566.6 654L568.7 656.1C571 658.5 574 657.9 571.9 655.4C571.3 654.6 569.8 654 568.7 654Z" />
		<path id="Layer" class="shp0" d="M406.5 498.5C403.8 499.8 400.9 500.9 400.1 500.9C399.3 501 395.8 502.4 392.2 504.1C387.6 506.4 383.3 507.5 377.1 508.3C364.9 509.6 362.6 509.5 352.7 507C344.6 504.9 343.6 504.9 339.7 506.2C335.5 507.7 319.2 507.8 310.7 506.4C307.8 505.9 306.4 506.2 305 507.5C300.3 511.8 304 517.6 315.3 523.9C343.3 539.3 370.9 538.7 409.5 521.6C414.6 519.3 423 512.1 426.1 507.2C431.2 499.2 429.9 497.2 418.9 496.5C412.5 496.1 410.8 496.4 406.5 498.5Z" />
		<path id="Layer" fill-rule="evenodd" class="shp4" d="M240.7 502.4C243.5 504.8 243.5 505 243.8 517.7C244.1 529.3 243.9 531 241.8 535.6C239.4 540.9 229 550.9 222.4 554.3C218.5 556.3 212.7 563.2 206.6 573C202.2 580.2 202 580.7 202 588.3C202 596.1 204.9 609.8 207.6 615.2C208.4 616.7 209 619 209 620.3C209 621.7 209.6 623 210.4 623.3C211.1 623.6 212 625.2 212.3 626.9C212.8 629.1 214.1 630.7 216.5 632.1C218.4 633.3 220 634.6 220 635.1C220 635.6 222.5 638.5 225.5 641.7C228.5 644.9 231 647.9 231 648.4C231 650.2 234.3 653 236.4 653C238.8 653.1 241.5 654.9 242.2 657C242.5 658 243.8 658.4 246.3 658.2C249.4 657.9 250.1 658.2 251.4 660.9C252.8 663.6 253.6 663.9 258.2 664.2C264.6 664.6 265.1 666.2 259.2 667.4C255.1 668.3 254.7 668.1 252.5 665.4C250.5 663 250.1 662.8 250 664.4C250 666 249.5 666.1 246.4 665.6C242.5 664.8 240 666.1 240 668.9C240 672.6 242.6 674.2 251.8 676.1C263.4 678.4 272.4 682.6 272.8 685.8L273.1 688L113.3 688L112 683.3C111.2 680.8 110.6 675.8 110.6 672.3C110.5 666.1 110.6 665.7 114 662.9L117.5 660L114.4 657.6C111.2 655 107.2 644.6 108.3 641.6C108.6 640.8 110.7 639.2 112.9 638C119.6 634.6 120.7 630.8 115.8 628.7C109.2 625.9 109 625.2 110.1 608.5C110.7 600.2 111.5 592.6 112 591.5C112.5 590.4 113 588.6 113.2 587.6C113.4 586.3 114.9 585.4 118.1 584.6C120.6 583.9 123.9 582.4 125.5 581.2C128.8 578.6 136 578.1 136 580.5C136 581.3 136.6 582 137.4 582C139.3 582 149 570.5 149 568.1C149 567 150.1 564.4 151.5 562.4C152.9 560.4 154 558.1 154 557.3C154 555.9 162.2 547 163.4 547C164.8 547 163.7 549.8 161 553C159.3 554.9 158 557.4 158 558.7C158 560 157.1 561.4 155.8 562.1L153.6 563.3L155.7 564.1C157.2 564.6 158.3 566.3 159 569.1C160.8 575.8 162.2 584.2 162.4 589C162.5 591.5 162.9 594.1 163.4 594.9C163.9 595.7 164.7 600 165.1 604.4C166.5 618.1 167.6 624.2 169 625C171.1 626.3 175.4 624.5 176.7 621.8C178.2 618.9 176.8 601.5 174.4 592C173.7 589 172.8 580.4 172.4 572.9C171.7 558.1 172.9 551.2 177.1 547.4C178.3 546.3 179.9 544.2 180.7 542.5C181.6 540.9 184.7 536.9 187.6 533.7C190.6 530.5 193 527 193 525.8C193 524.3 193.5 523.9 194.9 524.3C198.5 525.2 204.8 518.4 210.5 507.6C211.6 505.5 219.1 503.1 225 502.9C226.9 502.9 230.1 502.2 232 501.5C236.9 499.6 237.5 499.7 240.7 502.4ZM190.5 617C189.8 618.2 194.4 619.4 196.5 618.6C197.3 618.3 198 617.6 198 617C198 615.7 191.3 615.7 190.5 617ZM209.4 640.5C208.5 642.7 211.6 645.8 213.1 644.3C213.7 643.7 214 642.4 213.8 641.4C213.4 639 210.2 638.4 209.4 640.5Z" />
		<path id="Layer" class="shp5" d="M516 523.9C516 524.4 517.6 526.7 519.5 529C523.3 533.5 523.3 533.5 522.1 536.5C521 539.1 522.6 542 525 542C527.7 542 529 544.9 528.3 549.7C527.6 554.7 529.3 558.1 532.2 557.7C534.2 557.5 534.5 558.2 535.2 563C535.8 566.8 536.8 569.3 538.5 571C540.9 573.4 541 573.4 541 571.4C541 566.6 538.9 558.5 537.1 556.6C536.1 555.4 534.8 552.3 534.2 549.5C533.5 546.1 532.4 544 530.6 542.7C528.9 541.5 528 539.9 528 538C528 533.8 527.1 532.1 523.9 530.4C522.3 529.6 521 528.2 521 527.2C521 526.2 520.5 524.9 519.8 524.2C518.4 522.8 516 522.6 516 523.9Z" />
		<path id="Layer" class="shp0" d="M167 542.5C166.3 543.4 166 544.3 166.3 544.7C167.1 545.4 170 543.2 170 541.9C170 540.5 168.4 540.8 167 542.5Z" />
		<path id="Layer" class="shp0" d="M99 593C97.8 595.3 98.4 595.4 102.9 593.9C106.8 592.5 106.9 591 103 591C101.1 591 99.7 591.7 99 593Z" />
		<path id="Layer" class="shp0" d="M90.7 598.8C88.2 601.6 88.7 602.2 92 600.5C93.7 599.6 95 598.5 95 598C95 596.4 92.4 596.9 90.7 598.8Z" />
		<path id="Layer" class="shp6" d="M75.7 604C73.6 604.4 71.4 605.3 70.7 606C69.7 607 70.5 607.1 74.5 606.5L79.5 605.9L79.3 617.2C79.1 626.3 79.4 628.8 80.7 630.2C83.2 633 86.5 632.4 89.7 628.6C92.5 625.5 92.7 624.5 93.3 614.9C93.8 607.3 93.6 604.4 92.7 603.8C91.2 602.9 80.9 603 75.7 604Z" />
		<path id="Layer" class="shp7" d="M55.4 610.4C54.4 611.2 53.8 612.2 54.3 612.6C55.3 613.7 62.3 611.8 62.8 610.2C63.3 608.5 57.9 608.6 55.4 610.4Z" />
		<path id="Layer" class="shp8" d="M69.3 613.2C67.9 615 67 628.1 68.1 630.2C69.4 632.6 72.7 632.5 74 630.1C75.6 627.1 75.2 616.8 73.4 614.2C71.7 611.7 70.7 611.5 69.3 613.2Z" />
		<path id="Layer" class="shp9" d="M43.5 615.9C40.8 616.3 39.4 617.1 39.2 618.2C39 619.3 39.5 620 40.4 620C41.3 620 42 620.4 42 620.9C42 622.5 39 623 33.6 622.4C28.9 621.8 28.1 622 25.1 624.6C22.8 626.5 20.1 627.6 16.4 628.1C13.4 628.5 9.9 629.8 8.4 630.9C6.9 632.1 4.4 633 2.9 633C0.9 633 0 633.5 0 634.6C0 636 0.7 636.1 4 635.6C6.6 635.2 8 635.4 8 636C8 636.6 9.6 637.8 11.6 638.6C14.5 639.8 18.2 640 31.8 639.4C50.4 638.7 52.8 638 55.4 632.6C58 627.1 57.5 621.6 54 618C51 614.9 50.5 614.8 43.5 615.9Z" />
		<path id="Layer" class="shp10" d="M80.6 643.4L76.4 648L73.7 645.3C71.3 642.9 70.8 642.7 69.5 644C67.1 646.5 67 658.3 69.4 661.5C71.5 664.5 74 661.8 74 656.6C74 654.3 74.6 651.5 75.4 650.4C76.9 648.5 76.9 648.5 78.5 650.5C79.6 651.9 79.9 653.7 79.5 656.8C79 660.1 79.3 661.6 80.9 663.6C82.3 665.4 82.7 666.7 82.1 667.9C80.6 670.6 77.4 673.1 74.4 673.9C71.6 674.6 71.5 674.9 71.2 681.3L70.9 688L84.5 688L98 688L98 680.7C98 675.3 97.5 672.4 95.9 669.5C94.3 666.4 93.8 663.3 93.6 655.2C93.4 646.7 93 644.5 91.3 642.2C88.1 637.9 85.4 638.2 80.6 643.4Z" />
		<path id="Layer" class="shp11" d="M24.7 645.6C24.1 646.2 18.3 647.1 5.3 648.6L0 649.2L0 659.9C0 669.8 0.1 670.6 2.2 671.5C3.4 672.1 5.3 673.8 6.4 675.3L8.5 678.1L6.2 682C5 684.1 4 686.4 4 686.9C4 687.7 13.3 688 32.9 688L61.7 688L61.3 682.7C60.9 678.5 60.2 677 57.8 674.7C55 672.1 54.9 671.6 56 669.2C56.7 667.7 57.5 662.6 57.7 657.9C58.2 650 58.1 649.1 56.1 647.1C54.2 645.2 53 645 39.7 645C31.8 645 25.1 645.3 24.7 645.6Z" />
	</g>
</svg>